<svg id="10015.io" viewBox="0 0 1200 630" xmlns="http://www.w3.org/2000/svg"><defs><pattern id="pattern" x="0" y="0" width="61" height="61" patternUnits="userSpaceOnUse" patternTransform="translate(31, 31) rotate(17) skewX(0)"><svg width="30" height="30" viewBox="0 0 100 100"><g fill="#fedb0e" opacity="0.3"><path d="M28.1954 99.6973C29.4258 100.305 30.9206 99.9781 31.7829 98.8967L78.6579 40.1076C79.3594 39.2277 79.495 38.0238 79.0067 37.01C78.5184 35.9961 77.4926 35.3516 76.3672 35.3516H57.6584L73.1313 4.23418C73.5829 3.32598 73.5327 2.24883 72.9983 1.38672C72.4643 0.524609 71.5219 0 70.5079 0H35.3516C34.0061 0 32.8336 0.916406 32.5086 2.22188L20.7899 49.2922C20.5721 50.1672 20.7694 51.0937 21.3245 51.8041C21.8797 52.5146 22.7313 52.9297 23.6329 52.9297H37.4625L26.6495 96.3625C26.3165 97.6994 26.96 99.0875 28.1954 99.6973V99.6973ZM44.054 50.7078C44.2717 49.8328 44.0745 48.9063 43.5194 48.1959C42.9641 47.4854 42.1125 47.0703 41.211 47.0703H27.3813L37.6413 5.85938H65.779L50.3061 36.9768C49.8545 37.885 49.9047 38.9621 50.4391 39.8242C50.9731 40.6865 51.9155 41.2109 52.9295 41.2109H70.284L35.5829 84.732L44.054 50.7078Z"></path></g></svg></pattern></defs><rect x="0" y="0" width="100%" height="100%" fill="rgba(254, 181, 14, 0.07)"></rect><rect x="0" y="0" width="100%" height="100%" fill="url(#pattern)"></rect></svg>